Coordinates
version=1
nRows=16
nColumns=42
inDegrees=yes

Units are S.I. units (second, meters, Newtons, ...)
If the header above contains a line with 'inDegrees', this indicates whether rotational values are in degrees (yes) or radians (no).

endheader
time	pelvis_tilt	pelvis_list	pelvis_rotation	pelvis_tx	pelvis_ty	pelvis_tz	hip_flexion_r	hip_adduction_r	hip_rotation_r	knee_angle_r	knee_angle_r_beta	ankle_angle_r	subtalar_angle_r	mtp_angle_r	hip_flexion_l	hip_adduction_l	hip_rotation_l	knee_angle_l	knee_angle_l_beta	ankle_angle_l	subtalar_angle_l	mtp_angle_l	lumbar_extension	lumbar_bending	lumbar_rotation	sh_tx_r	sh_ty_r	sh_tz_r	sh_plane_elev_r	sh_elev_r	sh_axial_rot_r	elbow_flex_r	pro_sup_r	sh_tx_l	sh_ty_l	sh_tz_l	sh_plane_elev_l	sh_elev_l	sh_axial_rot_l	elbow_flex_l	pro_sup_l
      1.69491520	     -4.28211708	      0.21132933	     -0.98569842	      0.28040726	      0.93932575	     -0.01604054	      1.71630121	     -7.01484057	     -8.99333432	      0.79769339	      0.01392238	      1.68390934	      0.74061061	     -7.49999987	      1.29447557	     -3.94521769	    -18.51100937	      0.85467881	      0.01491696	      6.77044101	      5.83690034	     -7.49999987	     -0.35025447	     -2.43722440	    -11.22624708	      0.01931911	     -0.01777059	     -0.00514291	     25.24772178	      6.45274043	     -4.33019091	     27.96862684	     69.69098189	      0.01032478	     -0.01640122	     -0.00581142	     61.26221699	     35.01847791	    -39.87129043	     34.41588377	     29.57170654
      1.71186440	     -4.30501777	      0.22909549	     -0.91336501	      0.28019616	      0.93922039	     -0.01564797	      1.72699484	     -7.03598374	     -9.09406559	      0.79270804	      0.01383537	      1.61947439	      0.64444139	     -7.49999987	      1.34818021	     -3.93385236	    -18.51619043	      0.88167678	      0.01538816	      6.84032388	      5.84787488	     -7.49999987	     -0.18631364	     -2.43019579	    -11.80887061	      0.02190872	     -0.01780152	     -0.00538701	     26.09301740	      6.48546335	     -4.20537190	     27.77775489	     68.60659821	      0.01033491	     -0.01628189	     -0.00580881	     60.21401276	     34.72621124	    -40.18972242	     35.34982871	     32.04603149
      1.72881360	     -4.20661946	      0.22814500	     -0.87726334	      0.28043715	      0.93603339	     -0.01625702	      1.60922211	     -7.06486305	     -9.11322644	      0.77720971	      0.01356487	      1.60188274	      0.41174378	     -7.49999987	      1.27000352	     -3.93380396	    -18.45777812	      0.91767433	      0.01601644	      6.87682257	      5.88118910	     -7.49999987	     -0.47008519	     -2.39620766	    -10.98539549	      0.01943120	     -0.01784292	     -0.00522861	     25.65416532	      6.62301833	     -4.85595038	     27.69437502	     70.42871489	      0.01095411	     -0.01634468	     -0.00580269	     61.96839635	     35.53478020	    -40.49573322	     35.06086632	     29.73833721
      1.74576270	     -4.38550595	      0.19910024	     -0.78599474	      0.27967471	      0.93580819	     -0.01596368	      2.08550236	     -7.08854969	     -9.13316742	      1.32473303	      0.02312095	      1.80745412	      0.03328260	     -7.49999987	      1.76962917	     -4.07643140	    -18.33275512	      1.50761941	      0.02631292	      7.28291023	      5.78267950	     -7.49999987	     -0.75654156	     -2.23637481	    -11.23440626	      0.01749434	     -0.01586379	     -0.00531705	     27.14591179	      7.13528117	     -5.11274570	     28.12829319	     68.96494616	      0.01043998	     -0.01336270	     -0.00538612	     61.54612062	     35.50790742	    -41.08208701	     36.35236347	     32.80205199
      1.76271190	     -4.23480573	      0.20021781	     -0.71816297	      0.28061700	      0.93615015	     -0.01628119	      1.63768823	     -7.04283241	     -9.07674371	      0.82246322	      0.01435469	      1.71049888	     -0.04937334	     -7.49999987	      1.31283285	     -4.01176236	    -18.26179429	      0.96810378	      0.01689660	      7.17307500	      6.15343507	     -7.49999987	     -0.43072412	     -2.37994571	    -11.45139344	      0.01935012	     -0.01788497	     -0.00540922	     27.70626974	      6.80191302	     -5.24593812	     27.03192464	     68.88307628	      0.01060334	     -0.01624883	     -0.00576898	     61.55056807	     35.61202608	    -41.38429936	     36.28577888	     32.85705528
      1.77966100	     -4.21986291	      0.14712212	     -0.49568083	      0.28050336	      0.93325884	     -0.01610593	      1.57202383	     -6.97259886	     -9.15519443	      0.82564069	      0.01441015	      1.77069943	     -0.21505741	     -7.49999987	      1.35032331	     -4.10317888	    -17.99558037	      1.04224949	      0.01819069	      7.33798626	      6.10384771	     -7.49999987	     -0.49802662	     -2.26527477	    -12.22935540	      0.02023906	     -0.01793675	     -0.00543215	     27.34466566	      6.69024158	     -5.91666163	     27.62355095	     68.86778569	      0.00845723	     -0.01614479	     -0.00572779	     60.88425042	     35.85016555	    -41.05177351	     36.76220713	     32.29295241
      1.79661020	     -4.24462861	      0.10174884	     -0.39745907	      0.28074570	      0.93644451	     -0.01657261	      1.56455045	     -6.90340841	     -9.10183604	      0.82707853	      0.01443524	      1.90916190	     -0.42719311	     -7.49999987	      1.40177041	     -4.17848573	    -17.91553002	      1.08051389	      0.01885853	      7.48739104	      6.26785394	     -7.49999987	     -0.42950111	     -2.21640457	    -11.61954589	      0.01917048	     -0.01798786	     -0.00541346	     23.03678332	      6.14158418	     -4.33723228	     28.09700508	     71.96280710	      0.01009409	     -0.01614432	     -0.00570858	     61.70301010	     36.02540300	    -40.81347854	     37.02171704	     29.81297105
      1.81355930	     -4.41500785	      0.09022991	     -0.30248568	      0.27987015	      0.93618399	     -0.01634121	      1.99566508	     -6.92303030	     -9.04516126	      1.31229930	      0.02290394	      2.20768543	     -0.63351293	     -7.49999987	      1.92640208	     -4.29829257	    -17.75046169	      1.71308017	      0.02989889	      7.72938644	      5.95367164	     -7.49999987	     -0.72217595	     -2.06336923	    -11.64451527	      0.01596250	     -0.01615573	     -0.00536178	     23.98430945	      6.57721845	     -4.80608154	     28.72585258	     71.50608168	      0.00958275	     -0.01325902	     -0.00531841	     61.77158738	     36.32148227	    -40.76396749	     37.47249783	     31.12298072
      1.83050850	     -4.26072237	      0.10423934	     -0.21469895	      0.28064565	      0.93320880	     -0.01687494	      1.49948914	     -6.87331685	     -9.04227701	      0.74528798	      0.01300773	      2.17373800	     -0.59733355	     -7.49999987	      1.52323080	     -4.21646643	    -17.75628406	      1.19694254	      0.02089059	      7.55594149	      6.09951339	     -7.49999987	     -0.44898068	     -2.14158765	    -11.72742239	      0.01821890	     -0.01808535	     -0.00544873	     21.12185357	      5.92190395	     -4.12577755	     28.38914848	     73.19943411	      0.01005135	     -0.01619307	     -0.00557475	     62.07179691	     36.74690300	    -40.79829769	     36.91136398	     29.92293426
      1.84745760	     -4.26765000	      0.11329427	     -0.19619449	      0.28030773	      0.93349327	     -0.01658455	      1.49405937	     -6.86202629	     -8.95083380	      0.71561453	      0.01248983	      2.29100944	     -0.71256955	     -7.49999987	      1.56816339	     -4.23853697	    -17.82692414	      1.22252833	      0.02133714	      7.59843486	      6.06320797	     -7.49999987	     -0.46180148	     -2.11449969	    -12.11536592	      0.01849221	     -0.01811429	     -0.00551539	     21.71566995	      5.95446439	     -4.62024389	     28.53368579	     72.92860595	      0.00898055	     -0.01615009	     -0.00552198	     61.48541696	     36.96004051	    -40.81435388	     37.21692516	     30.51720828
      1.86440680	     -4.32772141	      0.11273799	     -0.17106158	      0.28062145	      0.93336082	     -0.01707713	      1.51121661	     -6.86987058	     -8.99893090	      0.70774276	      0.01235244	      2.36022751	     -0.88039217	     -7.49999987	      1.66518887	     -4.26472593	    -18.00308213	      1.25262373	      0.02186241	      7.63748881	      6.17296996	     -7.49999987	     -0.28992475	     -2.06102353	    -12.60601475	      0.01964670	     -0.01813035	     -0.00558907	     22.18489701	      5.99041428	     -4.61891424	     28.48584739	     71.86907757	      0.00866616	     -0.01609586	     -0.00549864	     60.75826390	     36.93565492	    -41.22055906	     37.60032918	     32.26365039
      1.88135590	     -4.41954082	      0.09468930	     -0.18347279	      0.28029784	      0.93049015	     -0.01645722	      1.59263649	     -6.81793533	     -8.77471837	      0.70709447	      0.01234113	      2.43517045	     -1.19232181	     -7.49999987	      1.78215026	     -4.31460116	    -18.13901158	      1.26807071	      0.02213201	      7.73870655	      6.14012276	     -7.49999987	     -0.10919520	     -2.03537760	    -12.72075012	      0.01993059	     -0.01814080	     -0.00570158	     23.28717014	      6.26962055	     -4.46059770	     28.28447957	     71.72418721	      0.00886785	     -0.01611893	     -0.00546545	     60.61015346	     37.33842806	    -40.83157849	     37.48172621	     32.31084488
      1.89830510	     -4.48600032	      0.03176227	     -0.00104166	      0.28062654	      0.92742745	     -0.01723121	      1.58251032	     -6.72684653	     -8.89435568	      0.69766268	      0.01217651	      2.57374157	     -1.25620741	     -7.49999987	      1.94135689	     -4.40735580	    -17.97256939	      1.34480002	      0.02347119	      7.79333003	      5.91016311	     -7.49999987	     -0.12266564	     -1.90301602	    -13.35591420	      0.02063052	     -0.01815927	     -0.00562902	     23.18053324	      6.14598021	     -5.32155759	     28.80738955	     71.29247062	      0.00688406	     -0.01600719	     -0.00543933	     60.21035135	     37.89810155	    -41.07478623	     37.21189120	     32.12421417
      1.91525420	     -4.59138931	     -0.04683705	     -0.07212076	      0.27638940	      0.92789131	     -0.01206961	      1.76338663	     -6.55122997	     -8.56878235	      0.73556066	      0.01283796	      2.69903497	     -1.60013256	     -7.49999987	      2.10177470	     -4.55705778	    -18.05501146	      1.35178293	      0.02359306	      7.96105126	      5.81209873	     -7.49999987	     -0.08148896	     -1.91586363	    -12.27000887	      0.01888165	     -0.01818654	     -0.00561806	     20.48468077	      5.88677762	     -3.97824457	     29.28458167	     72.31032225	      0.00910189	     -0.01599927	     -0.00538828	     61.64287419	     38.86673231	    -40.36920261	     36.22308448	     28.23428709
      1.93220340	     -4.82203322	     -0.14034257	     -0.05761256	      0.27677645	      0.92796828	     -0.01263033	      2.05909890	     -6.37306890	     -8.39756422	      0.76989922	      0.01343728	      2.84864555	     -1.73287128	     -7.49999987	      2.44807776	     -4.73678047	    -18.01930131	      1.43268535	      0.02500508	      7.88639490	      5.58546103	     -7.49999987	      0.19950520	     -1.86224043	    -12.37377516	      0.01903834	     -0.01821610	     -0.00571697	     21.91243088	      6.01501933	     -4.31910175	     28.99247742	     71.80479951	      0.00955228	     -0.01605695	     -0.00532887	     61.38276577	     39.04053766	    -40.82540970	     36.19236193	     29.56165495
      1.94915250	     -4.95482507	     -0.22571490	     -0.06961867	      0.27678071	      0.92842364	     -0.01244631	      2.24520088	     -6.20417302	     -8.13706736	      0.78975545	      0.01378383	      2.80678415	     -2.06841493	     -7.49999987	      2.66430219	     -4.90490930	    -18.08977823	      1.49492767	      0.02609141	      7.92321325	      5.58465138	     -7.49999987	      0.28451979	     -1.75842042	    -12.61563068	      0.02004413	     -0.01826498	     -0.00574743	     22.60660981	      6.00929695	     -5.05894994	     29.15125223	     71.38635254	      0.00961127	     -0.01596959	     -0.00532165	     61.11745372	     39.34287949	    -41.14639763	     35.99226565	     30.19620140
